<svg xmlns="http://www.w3.org/2000/svg" style="display: none;">
  <symbol id="lucide-menu" viewBox="0 0 24 24" fill="none" stroke="currentColor" stroke-width="2" stroke-linecap="round" stroke-linejoin="round">
    <line x1="4" y1="12" x2="20" y2="12"></line>
    <line x1="4" y1="6" x2="20" y2="6"></line>
    <line x1="4" y1="18" x2="20" y2="18"></line>
  </symbol>
  <symbol id="lucide-x" viewBox="0 0 24 24" fill="none" stroke="currentColor" stroke-width="2" stroke-linecap="round" stroke-linejoin="round">
    <path d="M18 6 6 18"></path>
    <path d="m6 6 12 12"></path>
  </symbol>
  <symbol id="lucide-shopping-bag" viewBox="0 0 24 24" fill="none" stroke="currentColor" stroke-width="2" stroke-linecap="round" stroke-linejoin="round">
    <path d="M6 2 3 6v14a2 2 0 0 0 2 2h14a2 2 0 0 0 2-2V6l-3-4Z"></path>
    <path d="M3 6h18"></path>
    <path d="M16 10a4 4 0 0 1-8 0"></path>
  </symbol>
  <symbol id="lucide-play-circle" viewBox="0 0 24 24" fill="none" stroke="currentColor" stroke-width="2" stroke-linecap="round" stroke-linejoin="round">
    <circle cx="12" cy="12" r="10"></circle>
    <polygon points="10 8 16 12 10 16 10 8"></polygon>
  </symbol>
  <symbol id="lucide-shield-check" viewBox="0 0 24 24" fill="none" stroke="currentColor" stroke-width="2" stroke-linecap="round" stroke-linejoin="round">
    <path d="M12 22s8-4 8-10V5l-8-3-8 3v7c0 6 8 10 8 10"></path>
    <path d="m9 12 2 2 4-4"></path>
  </symbol>
  <symbol id="lucide-cpu" viewBox="0 0 24 24" fill="none" stroke="currentColor" stroke-width="2" stroke-linecap="round" stroke-linejoin="round">
    <rect width="16" height="16" x="4" y="4" rx="2"></rect>
    <rect width="6" height="6" x="9" y="9" rx="1"></rect>
    <path d="M15 2v2"></path>
    <path d="M15 20v2"></path>
    <path d="M9 2v2"></path>
    <path d="M9 20v2"></path>
    <path d="M2 9h2"></path>
    <path d="M20 9h2"></path>
    <path d="M2 15h2"></path>
    <path d="M20 15h2"></path>
  </symbol>
  <symbol id="lucide-globe" viewBox="0 0 24 24" fill="none" stroke="currentColor" stroke-width="2" stroke-linecap="round" stroke-linejoin="round">
    <circle cx="12" cy="12" r="10"></circle>
    <path d="M12 2a14.5 14.5 0 0 0 0 20 14.5 14.5 0 0 0 0-20"></path>
    <path d="M2 12h20"></path>
  </symbol>
  <symbol id="lucide-scan-line" viewBox="0 0 24 24" fill="none" stroke="currentColor" stroke-width="2" stroke-linecap="round" stroke-linejoin="round">
    <path d="M3 7V5a2 2 0 0 1 2-2h2"></path>
    <path d="M17 3h2a2 2 0 0 1 2 2v2"></path>
    <path d="M21 17v2a2 2 0 0 1-2 2h-2"></path>
    <path d="M7 21H5a2 2 0 0 1-2-2v-2"></path>
    <path d="M7 12h10"></path>
  </symbol>
  <symbol id="lucide-plus" viewBox="0 0 24 24" fill="none" stroke="currentColor" stroke-width="2" stroke-linecap="round" stroke-linejoin="round">
    <path d="M5 12h14"></path>
    <path d="M12 5v14"></path>
  </symbol>
  <symbol id="lucide-mail" viewBox="0 0 24 24" fill="none" stroke="currentColor" stroke-width="2" stroke-linecap="round" stroke-linejoin="round">
    <rect width="20" height="16" x="2" y="4" rx="2"></rect>
    <path d="m22 7-8.97 5.7a1.94 1.94 0 0 1-2.06 0L2 7"></path>
  </symbol>
  <symbol id="lucide-arrow-right" viewBox="0 0 24 24" fill="none" stroke="currentColor" stroke-width="2" stroke-linecap="round" stroke-linejoin="round">
    <path d="M5 12h14"></path>
    <path d="m12 5 7 7-7 7"></path>
  </symbol>
  <symbol id="lucide-chevron-left" viewBox="0 0 24 24" fill="none" stroke="currentColor" stroke-width="2" stroke-linecap="round" stroke-linejoin="round">
    <path d="m15 18-6-6 6-6"></path>
  </symbol>
  <symbol id="lucide-chevron-right" viewBox="0 0 24 24" fill="none" stroke="currentColor" stroke-width="2" stroke-linecap="round" stroke-linejoin="round">
    <path d="m9 18 6-6-6-6"></path>
  </symbol>
  <symbol id="lucide-film" viewBox="0 0 24 24" fill="none" stroke="currentColor" stroke-width="2" stroke-linecap="round" stroke-linejoin="round">
    <rect width="18" height="18" x="3" y="3" rx="2"></rect>
    <path d="M7 3v18"></path><path d="M3 7.5h4"></path><path d="M3 12h18"></path><path d="M3 16.5h4"></path><path d="M17 3v18"></path><path d="M17 7.5h4"></path><path d="M17 16.5h4"></path>
  </symbol>
  <symbol id="lucide-instagram" viewBox="0 0 24 24" fill="none" stroke="currentColor" stroke-width="2" stroke-linecap="round" stroke-linejoin="round">
    <rect width="20" height="20" x="2" y="2" rx="5" ry="5"></rect>
    <path d="M16 11.37A4 4 0 1 1 12.63 8 4 4 0 0 1 16 11.37z"></path>
    <line x1="17.5" x2="17.51" y1="6.5" y2="6.5"></line>
  </symbol>
  <symbol id="lucide-facebook" viewBox="0 0 24 24" fill="none" stroke="currentColor" stroke-width="2" stroke-linecap="round" stroke-linejoin="round">
    <path d="M18 2h-3a5 5 0 0 0-5 5v3H7v4h3v8h4v-8h3l1-4h-4V7a1 1 0 0 1 1-1h3z"></path>
  </symbol>
  <symbol id="lucide-youtube" viewBox="0 0 24 24" fill="none" stroke="currentColor" stroke-width="2" stroke-linecap="round" stroke-linejoin="round">
    <path d="M2.5 17a24.12 24.12 0 0 1 0-10 2 2 0 0 1 1.4-1.4 49.56 49.56 0 0 1 16.2 0A2 2 0 0 1 21.5 7a24.12 24.12 0 0 1 0 10 2 2 0 0 1-1.4 1.4 49.55 49.55 0 0 1-16.2 0A2 2 0 0 1 2.5 17"></path>
    <path d="m10 15 5-3-5-3z"></path>
  </symbol>
  <symbol id="lucide-gamepad-2" viewBox="0 0 24 24" fill="none" stroke="currentColor" stroke-width="2" stroke-linecap="round" stroke-linejoin="round">
    <line x1="6" y1="11" x2="10" y2="11"></line><line x1="8" y1="9" x2="8" y2="13"></line><line x1="15" y1="12" x2="15.01" y2="12"></line><line x1="18" y1="10" x2="18.01" y2="10"></line>
    <path d="M17.32 5H6.68a4 4 0 0 0-3.978 3.59c-.006.052-.01.101-.017.152C2.604 9.416 2 14.456 2 16a3 3 0 0 0 3 3c1 0 1.5-.5 2-1l1.414-1.414A2 2 0 0 1 9.828 16h4.344a2 2 0 0 1 1.414.586L17 18c.5.5 1 1 2 1a3 3 0 0 0 3-3c0-1.545-.604-6.584-.685-7.258-.007-.05-.011-.1-.017-.151A4 4 0 0 0 17.32 5z"></path>
  </symbol>
  <symbol id="lucide-linkedin" viewBox="0 0 24 24" fill="none" stroke="currentColor" stroke-width="2" stroke-linecap="round" stroke-linejoin="round">
    <path d="M16 8a6 6 0 0 1 6 6v7h-4v-7a2 2 0 0 0-2-2 2 2 0 0 0-2 2v7h-4v-7a6 6 0 0 1 6-6z"></path>
    <rect width="4" height="12" x="2" y="9"></rect>
    <circle cx="4" cy="4" r="2"></circle>
  </symbol>
  <symbol id="lucide-tiktok" viewBox="0 0 24 24" fill="none" stroke="currentColor" stroke-width="2" stroke-linecap="round" stroke-linejoin="round">
    <path d="M16.8217 5.1344C16.0886 4.29394 15.6479 3.19805 15.6479 2H14.7293M16.8217 5.1344C17.4898 5.90063 18.3944 6.45788 19.4245 6.67608C19.7446 6.74574 20.0786 6.78293 20.4266 6.78293V10.2191C18.645 10.2191 16.9932 9.64801 15.6477 8.68211V15.6707C15.6477 19.1627 12.8082 22 9.32386 22C7.50043 22 5.85334 21.2198 4.69806 19.98C3.64486 18.847 2.99994 17.3331 2.99994 15.6707C2.99994 12.2298 5.75592 9.42509 9.17073 9.35079M16.8217 5.1344C16.8039 5.12276 16.7861 5.11101 16.7684 5.09914M6.9855 17.3517C6.64217 16.8781 6.43802 16.2977 6.43802 15.6661C6.43802 14.0734 7.73249 12.7778 9.32394 12.7778C9.62087 12.7778 9.9085 12.8288 10.1776 12.9124V9.40192C9.89921 9.36473 9.61622 9.34149 9.32394 9.34149C9.27287 9.34149 8.86177 9.36884 8.81073 9.36884M14.7244 2H12.2097L12.2051 15.7775C12.1494 17.3192 10.8781 18.5591 9.32386 18.5591C8.35878 18.5591 7.50971 18.0808 6.98079 17.3564"/>
  </symbol>
</svg>