<?xml version="1.0" encoding="UTF-8" standalone="no"?>
<!DOCTYPE svg PUBLIC "-//W3C//DTD SVG 1.1//EN" "http://www.w3.org/Graphics/SVG/1.1/DTD/svg11.dtd">
<svg width="100%" height="100%" viewBox="0 0 3000 3000" version="1.1" xmlns="http://www.w3.org/2000/svg" xmlns:xlink="http://www.w3.org/1999/xlink" xml:space="preserve" xmlns:serif="http://www.serif.com/" style="fill-rule:evenodd;clip-rule:evenodd;stroke-linejoin:round;stroke-miterlimit:2;">
    <g id="Artboard1" transform="matrix(0.784109,0,0,0.813229,291.688447,404.987802)">
        <rect x="-372" y="-498" width="3826" height="3689" style="fill:none;"/>
        <g transform="matrix(1.258473,0,0,1.21341,-697.943064,-529.244538)">
            <g transform="matrix(1,0,0,1,510,0)">
                <path d="M289.394,1040.92C473.317,681.84 847.158,435.842 1278,435.842C1683.76,435.842 2038.97,654.032 2232.59,979.384C2218.11,982.146 2204.55,984.725 2196.96,986.15C2007.91,676.626 1666.91,469.843 1278,469.843C862.289,469.843 501.324,706.102 322.166,1051.56C309.854,1046.62 298.758,1043.24 289.394,1040.92ZM397.731,2164.46C592.539,2441.02 914.32,2621.84 1278,2621.84C1780.12,2621.84 2202.36,2277.16 2320.84,1811.71C2338.18,1808.48 2350.63,1806.14 2357.58,1804.8C2240.8,2292.7 1801.47,2655.85 1278,2655.85C897.24,2655.85 561.001,2463.72 361.024,2171.2C370.747,2169.41 383.059,2167.15 397.731,2164.46ZM498.275,1222.44C625.278,916.907 926.719,701.841 1278,701.841C1550.63,701.841 1793.25,831.389 1947.59,1032.23L1761.93,1066.54C1638.44,941.864 1467.17,864.59 1278,864.59C999.697,864.59 760.15,1031.83 654.457,1271.2L530.112,1294.18C520.309,1267.63 509.598,1243.81 498.275,1222.44ZM2061.69,1859.52C1937.08,2170.2 1632.99,2389.84 1278,2389.84C1032.38,2389.84 811.122,2284.69 656.828,2116.99L855.998,2080.52C972.072,2172.29 1118.68,2227.09 1278,2227.09C1525.93,2227.09 1743.1,2094.36 1862.28,1896.14C1934.12,1882.96 2001.3,1870.62 2061.69,1859.52ZM1220.65,674.526C1217.68,674.938 1276.99,486.817 1278.99,488.859C1280.68,490.592 1336.49,674.263 1335.44,674.109C1284.84,666.726 1276.84,666.726 1220.65,674.526ZM620.033,970.819C618.224,973.212 527.137,798.256 529.995,798.285C532.417,798.315 701.76,888.721 700.909,889.355C659.902,919.919 654.245,925.576 620.033,970.819ZM1854.86,889.717C1852.47,887.908 2027.43,796.821 2027.4,799.679C2027.37,802.1 1936.96,971.444 1936.33,970.592C1905.76,929.586 1900.11,923.929 1854.86,889.717ZM1335.35,2420.84C1338.32,2420.43 1279.02,2608.55 1277.02,2606.51C1275.33,2604.78 1219.51,2421.11 1220.56,2421.26C1271.17,2428.64 1279.17,2428.64 1335.35,2420.84ZM1935.97,2124.55C1937.78,2122.16 2028.87,2297.11 2026.01,2297.08C2023.59,2297.05 1854.25,2206.65 1855.1,2206.01C1896.1,2175.45 1901.76,2169.79 1935.97,2124.55ZM701.133,2205.66C703.525,2207.47 528.569,2298.55 528.599,2295.69C528.628,2293.27 619.035,2123.93 619.668,2124.78C650.233,2165.79 655.89,2171.44 701.133,2205.66Z" style="fill:rgb(192,0,16);"/>
            </g>
            <g transform="matrix(4.19125,0,0,4.17767,-365.739,-518.361)">
                <path d="M482,779.48C467.245,777.637 383.904,767.225 314.533,698.829C304.453,688.891 277.235,654.512 276.682,654.574C274.656,654.799 259.703,662.656 238.5,662.5C233.585,662.464 203.88,662.246 181.48,639.62C133.773,591.358 151.96,479.243 154.882,466.555C156.34,460.22 167.677,404.07 214,380.13C233.503,370 248.891,370 252.04,370L256.59,370L261.4,360.75C268.12,347.831 293.072,302.486 339.88,266.66C380.51,235.54 425.39,216.86 477.5,209.37C490.883,207.452 563.292,197.073 643.919,238.779C724.717,280.573 763.445,354.862 763.55,355C770.78,352.701 786.565,340.263 821.164,343.56C836.445,345.016 854.249,348.629 864.466,365.62C870.159,375.089 878.676,392.89 864.4,426.04L860.88,433.58L864.96,440.54C891.309,485.436 860.475,548.91 799.3,554.61L792.38,555.25L790.59,564.1C788.29,575.47 780.55,598.56 774.53,612C746.94,673.63 694.82,726.51 634.21,754.36C622.997,759.515 558.733,789.058 482,779.48ZM772.979,555.78C772.74,556.139 289.187,644.819 288.873,644.945C285.294,646.381 283.285,649.822 283.386,649.971C320.556,704.951 383.95,750.27 451,766.48C571.199,795.444 703.395,735.591 762.865,620.344C779.456,588.191 784.225,565.144 785.425,557.464C785.776,555.214 772.979,555.78 772.979,555.78ZM755.425,355.864C695.69,248.081 562.436,193.14 446,222.99C376.45,240.81 315.42,285.35 278.83,345C269.076,360.889 258.865,370.984 270.56,372.01C271.962,372.133 313.345,373.864 335.425,433.864L731.695,360.396C733.151,360.146 755.425,355.864 755.425,355.864ZM772.025,547.761L787.345,549.064C788.27,548.138 828.927,548.687 854.592,516.993C869.309,498.821 867.565,475.024 867.287,471.235C865.883,452.06 862.343,453.2 852.685,434.414C862.719,409.322 866.746,403.901 863.883,384.512C862.587,375.735 857.034,348.168 811.909,350.45C766.694,352.737 763,370.342 759.774,364.223C759.901,364.484 759.994,364.672 760.045,364.766C756.542,363.015 754.622,363.504 410.685,429.416C410.357,429.479 340.58,443.68 330.822,443.856C329.094,443.888 324.527,424.442 316.445,411.436C299.406,384.02 269.231,378.168 269.096,378.049C268.682,378.024 210.012,367.61 177.237,426.649C147.42,480.36 157.608,564.167 159,573.5C169.486,643.936 219.811,663.707 258.129,653.438C263.073,652.113 274.558,648.535 286.965,638.003C288.186,636.966 288.873,637.524 289.112,638.482C289.112,638.482 771.703,549.962 772.025,547.761ZM512.88,551.86L516,546.34L516,447.69L513.37,444.24C508.093,437.326 512.346,430.723 512.974,429.748C514.574,427.263 515.38,429.292 549.27,422.87C549.171,426.753 550.837,430.548 550.737,434.431C550.702,435.819 549.685,437.029 548.88,438.16L546.5,441.5L546.22,491.91L545.95,542.32L548.58,546.3C549.464,547.633 550.554,549.019 550.68,550.614C550.993,554.563 549.547,558.521 549.86,562.47C525.217,562.314 512.827,586.797 510.34,562.22C509.765,556.542 510.173,556.669 512.88,551.86ZM413.46,571.05L415.92,567.5L416.06,516.17C416.072,511.882 416.194,467.403 414.1,462.61C413.541,461.33 407.893,448.403 419.8,446.1C434.918,443.177 450.041,440.245 465.249,437.834C518.482,429.395 512.916,508.112 474.326,525.438C466.015,529.169 456.561,529.889 448.25,533.62L447,547.82L447,561.7L450.08,564.93C455.318,570.403 451.491,581.187 447.68,582C444.916,582.59 414.535,589.075 412.56,585.78C408.254,578.598 412.79,572.022 413.46,571.05ZM458.35,501.92C470.892,498.447 477.709,479.163 471.434,470.539C466.646,463.959 453.59,466.751 452.05,467.08L447,468.17L447,503L450.75,502.99C452.81,502.99 456.23,502.51 458.35,501.92ZM322.93,590.01L325.76,585.5L327.04,482.5L324.46,478.71C321.621,474.541 322.078,474.275 323.46,469.48C323.895,467.97 323.663,465.485 325.185,465.092C346.627,459.557 368.918,457.745 390.36,452.21C403.146,478.227 404.703,478.282 403.26,481.96C401.053,487.586 388.647,480.234 368.64,484.02L357,486.22L357,498.72C357,499.694 357,511.09 359.25,510.68C381.114,506.697 380,503.82 387.28,500C392.201,497.418 390.82,530.351 390.234,532.429C389.491,535.063 385.931,536.272 385.189,538.906C382.328,538.723 379.912,536.309 377.051,536.125C373.421,535.892 369.827,537.028 366.25,537.69L357,539.4L357,553.7C357,563.249 352.772,568.647 362.307,567.687C365.274,567.388 368.175,566.612 371.08,565.94C391.983,561.106 394.151,552 401.5,552L403.87,552L401.99,558.75C398.811,570.16 398.045,583.429 390.14,592.25C390.028,592.375 324.148,606.454 322.6,604.16C318.173,597.599 322.329,590.969 322.93,590.01ZM655,467.44L654.5,420.38L651.7,417.05C648.26,412.988 648.457,412.516 650.57,407.49C655.642,395.427 659.726,401.274 672.48,398.98C673.974,398.709 689.933,395.818 691.459,398.73C694.671,404.86 690.38,410.823 689.77,411.67L686.5,416.23L686.5,458.36C686.5,472.292 686.512,486.242 687.396,500.145C688.193,512.679 707.876,511.809 712.4,499.03C714.507,493.077 714.782,455.96 714.81,452.21L715.12,409.93L712.56,406.89C711.864,406.064 708.531,402.106 712.022,393.403C713.119,390.67 714.286,392.993 748.24,386.84C748.112,390.479 749.835,394.026 749.706,397.665C749.658,399.04 748.564,400.195 747.73,401.29L745.21,404.6L744.71,449.55C744.544,464.517 744.29,479.492 743.46,494.438C740.911,540.34 669.044,555.214 657.74,520.04C655.487,513.03 655.045,471.653 655,467.44ZM834.75,374.16L838,375.16L838,390.54C838,391.937 838,405.386 835.9,407.88C828.949,416.136 818.335,399.421 815.812,398.891C791.007,393.684 781.062,414.025 794.46,423.22C805.665,430.91 842.094,439.446 841.931,474.222C841.909,478.965 841.763,510.331 804.714,520.359C792.893,523.558 773.903,521.31 758.61,522.42C760.231,487.217 754.966,482.019 766.41,480C769.891,479.386 777.762,489.963 778.421,490.396C793.506,500.312 834.085,481.348 792.25,461.09C771.322,450.956 758.456,445.839 758.5,418.48C758.572,373.735 804.132,364.809 834.75,374.16ZM227.07,630.51C200.75,624.56 185.73,604.9 180.07,569C175.07,537.21 177.54,487.56 185.45,461.2C208.294,385.01 277.926,383.905 300.27,424.01C309.11,439.85 313,459.89 313.75,493.3C315.03,549.96 304.64,588.65 281.87,612.01C267.19,627.08 245.02,634.56 227.07,630.51ZM251.87,593.56C277.56,580.551 277.47,509.144 277.46,501.5C277.454,497.988 277.41,470.056 274.285,457.719C264.415,418.754 224.418,418.45 216.3,484C214.491,498.607 213.304,555.076 219.175,573.67C220.097,576.589 229.102,605.112 251.87,593.56ZM585.07,552.97C570.52,547.74 563.02,537.54 558.83,517.3C557.607,511.355 550.365,451.615 578.205,423.727C603.091,398.799 631.666,407.521 636.25,408.92L644,411.29L644,415.99C644,420.578 639.107,438.368 636.98,441.88C633.028,448.407 626.942,453.473 622.99,460C620.82,441.596 623.727,439.56 616.837,435.936C583.708,418.511 576.19,541.734 617.23,522.29C624.848,518.681 643.865,496.68 644.552,499.925C644.92,501.66 640.523,539.259 640.39,539.5C638.426,543.049 604.744,560.063 585.07,552.97Z" style="fill:rgb(255,174,0);"/>
            </g>
        </g>
    </g>
</svg>
