<?xml version="1.0" encoding="UTF-8" standalone="no"?>
<!DOCTYPE svg PUBLIC "-//W3C//DTD SVG 1.1//EN" "http://www.w3.org/Graphics/SVG/1.1/DTD/svg11.dtd">
<svg width="100%" height="100%" viewBox="0 0 237 237" version="1.1" xmlns="http://www.w3.org/2000/svg" xmlns:xlink="http://www.w3.org/1999/xlink" xml:space="preserve" xmlns:serif="http://www.serif.com/" style="fill-rule:evenodd;clip-rule:evenodd;stroke-linejoin:round;stroke-miterlimit:2;">
    <g transform="matrix(1,0,0,1,-343,-846)">
        <g transform="matrix(0.972101,0,0,0.972101,9.569457,23.6028)">
            <path d="M343,846L343,904.655L401.655,904.655L401.655,846L343,846ZM418.414,846L418.414,862.759L426.793,862.759L426.793,846L418.414,846ZM460.31,846L460.31,854.379L468.69,854.379L468.69,862.759L460.31,862.759L460.31,854.379L451.931,854.379L451.931,862.759L460.31,862.759L460.31,871.138L468.69,871.138L468.69,879.517L477.069,879.517L477.069,887.897L460.31,887.897L460.31,879.517L443.552,879.517L443.552,871.138L435.172,871.138L435.172,879.517L443.552,879.517L443.552,887.897L451.931,887.897L451.931,896.276L460.31,896.276L460.31,904.655L468.69,904.655L468.69,896.276L477.069,896.276L477.069,904.655L485.448,904.655L485.448,887.897L493.828,887.897L493.828,913.034L502.207,913.034L502.207,929.793L510.586,929.793L510.586,938.172L518.966,938.172L518.966,946.552L527.345,946.552L527.345,938.172L518.966,938.172L518.966,921.414L510.586,921.414L510.586,913.034L518.966,913.034L518.966,879.517L510.586,879.517L510.586,871.138L502.207,871.138L502.207,879.517L493.828,879.517L493.828,871.138L485.448,871.138L485.448,862.759L493.828,862.759L493.828,854.379L510.586,854.379L510.586,871.138L518.966,871.138L518.966,854.379L510.586,854.379L510.586,846L477.069,846L477.069,854.379L468.69,854.379L468.69,846L460.31,846ZM527.345,846L527.345,904.655L586,904.655L586,846L527.345,846ZM393.276,854.379L393.276,896.276L351.379,896.276L351.379,854.379L393.276,854.379ZM577.621,854.379L577.621,896.276L535.724,896.276L535.724,854.379L577.621,854.379ZM359.759,862.759L359.759,887.897L384.897,887.897L384.897,862.759L359.759,862.759ZM410.034,862.759L410.034,913.034L418.414,913.034L418.414,921.414L426.793,921.414L426.793,929.793L435.172,929.793L435.172,938.172L443.552,938.172L443.552,929.793L435.172,929.793L435.172,921.414L426.793,921.414L426.793,913.034L418.414,913.034L418.414,879.517L426.793,879.517L426.793,871.138L418.414,871.138L418.414,862.759L410.034,862.759ZM443.552,862.759L443.552,871.138L451.931,871.138L451.931,862.759L443.552,862.759ZM544.103,862.759L544.103,887.897L569.241,887.897L569.241,862.759L544.103,862.759ZM426.793,887.897L426.793,913.034L435.172,913.034L435.172,887.897L426.793,887.897ZM510.586,887.897L510.586,904.655L502.207,904.655L502.207,887.897L510.586,887.897ZM443.552,896.276L443.552,904.655L451.931,904.655L451.931,913.034L460.31,913.034L460.31,921.414L477.069,921.414L477.069,929.793L468.69,929.793L468.69,938.172L460.31,938.172L460.31,946.552L477.069,946.552L477.069,938.172L485.448,938.172L485.448,921.414L477.069,921.414L477.069,913.034L460.31,913.034L460.31,904.655L451.931,904.655L451.931,896.276L443.552,896.276ZM343,913.034L343,921.414L351.379,921.414L351.379,913.034L343,913.034ZM359.759,913.034L359.759,921.414L368.138,921.414L368.138,929.793L343,929.793L343,1021.966L351.379,1021.966L351.379,971.69L359.759,971.69L359.759,980.069L368.138,980.069L368.138,971.69L376.517,971.69L376.517,988.448L384.897,988.448L384.897,980.069L393.276,980.069L393.276,988.448L401.655,988.448L401.655,980.069L393.276,980.069L393.276,971.69L376.517,971.69L376.517,963.31L359.759,963.31L359.759,954.931L351.379,954.931L351.379,946.552L359.759,946.552L359.759,938.172L368.138,938.172L368.138,954.931L376.517,954.931L376.517,963.31L393.276,963.31L393.276,971.69L410.034,971.69L410.034,980.069L426.793,980.069L426.793,988.448L435.172,988.448L435.172,980.069L426.793,980.069L426.793,971.69L443.552,971.69L443.552,1005.207L451.931,1005.207L451.931,980.069L460.31,980.069L460.31,988.448L477.069,988.448L477.069,996.828L468.69,996.828L468.69,1005.207L460.31,1005.207L460.31,1013.586L468.69,1013.586L468.69,1021.966L477.069,1021.966L477.069,1030.345L468.69,1030.345L468.69,1021.966L451.931,1021.966L451.931,1013.586L435.172,1013.586L435.172,996.828L426.793,996.828L426.793,988.448L418.414,988.448L418.414,996.828L426.793,996.828L426.793,1005.207L418.414,1005.207L418.414,996.828L410.034,996.828L410.034,1005.207L418.414,1005.207L418.414,1013.586L393.276,1013.586L393.276,1005.207L384.897,1005.207L384.897,996.828L376.517,996.828L376.517,988.448L368.138,988.448L368.138,996.828L376.517,996.828L376.517,1005.207L368.138,1005.207L368.138,996.828L359.759,996.828L359.759,1005.207L368.138,1005.207L368.138,1013.586L359.759,1013.586L359.759,1021.966L376.517,1021.966L376.517,1013.586L393.276,1013.586L393.276,1021.966L410.034,1021.966L410.034,1030.345L426.793,1030.345L426.793,1047.103L435.172,1047.103L435.172,1063.862L443.552,1063.862L443.552,1055.483L451.931,1055.483L451.931,1072.241L460.31,1072.241L460.31,1055.483L451.931,1055.483L451.931,1047.103L443.552,1047.103L443.552,1038.724L451.931,1038.724L451.931,1047.103L460.31,1047.103L460.31,1055.483L468.69,1055.483L468.69,1047.103L460.31,1047.103L460.31,1038.724L477.069,1038.724L477.069,1047.103L485.448,1047.103L485.448,1055.483L477.069,1055.483L477.069,1063.862L485.448,1063.862L485.448,1072.241L493.828,1072.241L493.828,1080.621L502.207,1080.621L502.207,1089L510.586,1089L510.586,1080.621L502.207,1080.621L502.207,1072.241L510.586,1072.241L510.586,1080.621L518.966,1080.621L518.966,1089L527.345,1089L527.345,1080.621L518.966,1080.621L518.966,1055.483L535.724,1055.483L535.724,1063.862L527.345,1063.862L527.345,1072.241L535.724,1072.241L535.724,1089L569.241,1089L569.241,1080.621L560.862,1080.621L560.862,1072.241L569.241,1072.241L569.241,1080.621L577.621,1080.621L577.621,1063.862L586,1063.862L586,1055.483L569.241,1055.483L569.241,1047.103L560.862,1047.103L560.862,1055.483L552.483,1055.483L552.483,1038.724L569.241,1038.724L569.241,1030.345L586,1030.345L586,1013.586L577.621,1013.586L577.621,1005.207L569.241,1005.207L569.241,980.069L552.483,980.069L552.483,971.69L544.103,971.69L544.103,963.31L535.724,963.31L535.724,954.931L502.207,954.931L502.207,963.31L518.966,963.31L518.966,971.69L535.724,971.69L535.724,988.448L518.966,988.448L518.966,996.828L510.586,996.828L510.586,980.069L518.966,980.069L518.966,971.69L493.828,971.69L493.828,980.069L502.207,980.069L502.207,996.828L510.586,996.828L510.586,1005.207L527.345,1005.207L527.345,1013.586L510.586,1013.586L510.586,1005.207L502.207,1005.207L502.207,996.828L493.828,996.828L493.828,1013.586L502.207,1013.586L502.207,1021.966L510.586,1021.966L510.586,1030.345L485.448,1030.345L485.448,1021.966L477.069,1021.966L477.069,1013.586L485.448,1013.586L485.448,1021.966L493.828,1021.966L493.828,1013.586L485.448,1013.586L485.448,988.448L493.828,988.448L493.828,980.069L477.069,980.069L477.069,963.31L468.69,963.31L468.69,954.931L435.172,954.931L435.172,963.31L426.793,963.31L426.793,954.931L418.414,954.931L418.414,938.172L410.034,938.172L410.034,963.31L418.414,963.31L418.414,971.69L410.034,971.69L410.034,963.31L393.276,963.31L393.276,954.931L401.655,954.931L401.655,946.552L393.276,946.552L393.276,938.172L401.655,938.172L401.655,929.793L393.276,929.793L393.276,921.414L401.655,921.414L401.655,929.793L410.034,929.793L410.034,921.414L401.655,921.414L401.655,913.034L359.759,913.034ZM443.552,913.034L443.552,921.414L451.931,921.414L451.931,913.034L443.552,913.034ZM485.448,913.034L485.448,921.414L493.828,921.414L493.828,913.034L485.448,913.034ZM527.345,913.034L527.345,929.793L552.483,929.793L552.483,921.414L569.241,921.414L569.241,913.034L527.345,913.034ZM384.897,921.414L384.897,929.793L376.517,929.793L376.517,921.414L384.897,921.414ZM577.621,921.414L577.621,929.793L586,929.793L586,921.414L577.621,921.414ZM384.897,938.172L384.897,954.931L376.517,954.931L376.517,938.172L384.897,938.172ZM493.828,938.172L493.828,946.552L510.586,946.552L510.586,938.172L493.828,938.172ZM535.724,938.172L535.724,946.552L544.103,946.552L544.103,938.172L535.724,938.172ZM552.483,938.172L552.483,954.931L569.241,954.931L569.241,946.552L560.862,946.552L560.862,938.172L552.483,938.172ZM569.241,938.172L569.241,946.552L577.621,946.552L577.621,938.172L569.241,938.172ZM485.448,946.552L485.448,954.931L493.828,954.931L493.828,946.552L485.448,946.552ZM477.069,954.931L477.069,963.31L485.448,963.31L485.448,954.931L477.069,954.931ZM544.103,954.931L544.103,963.31L552.483,963.31L552.483,971.69L569.241,971.69L569.241,980.069L577.621,980.069L577.621,971.69L569.241,971.69L569.241,963.31L552.483,963.31L552.483,954.931L544.103,954.931ZM577.621,954.931L577.621,963.31L586,963.31L586,954.931L577.621,954.931ZM468.69,971.69L468.69,980.069L460.31,980.069L460.31,971.69L468.69,971.69ZM544.103,988.448L544.103,980.069L552.483,980.069L552.483,988.448L560.862,988.448L560.862,1005.207L569.241,1005.207L569.241,1013.586L560.862,1013.586L560.862,1021.966L552.483,1021.966L552.483,1005.207L544.103,1005.207L544.103,996.828L552.483,996.828L552.483,988.448L544.103,988.448ZM577.621,988.448L577.621,996.828L586,996.828L586,988.448L577.621,988.448ZM393.276,996.828L393.276,1005.207L401.655,1005.207L401.655,996.828L393.276,996.828ZM435.172,1030.345L426.793,1030.345L426.793,1013.586L435.172,1013.586L435.172,1030.345ZM544.103,1021.966L544.103,1047.103L518.966,1047.103L518.966,1021.966L544.103,1021.966ZM343,1030.345L343,1089L401.655,1089L401.655,1030.345L343,1030.345ZM443.552,1030.345L443.552,1021.966L451.931,1021.966L451.931,1030.345L443.552,1030.345ZM527.345,1030.345L527.345,1038.724L535.724,1038.724L535.724,1030.345L527.345,1030.345ZM393.276,1038.724L393.276,1080.621L351.379,1080.621L351.379,1038.724L393.276,1038.724ZM410.034,1038.724L410.034,1072.241L418.414,1072.241L418.414,1080.621L435.172,1080.621L435.172,1089L443.552,1089L443.552,1072.241L418.414,1072.241L418.414,1038.724L410.034,1038.724ZM502.207,1038.724L502.207,1047.103L510.586,1047.103L510.586,1055.483L502.207,1055.483L502.207,1047.103L485.448,1047.103L485.448,1038.724L502.207,1038.724ZM359.759,1047.103L359.759,1072.241L384.897,1072.241L384.897,1047.103L359.759,1047.103ZM468.69,1063.862L468.69,1080.621L460.31,1080.621L460.31,1089L477.069,1089L477.069,1063.862L468.69,1063.862ZM493.828,1063.862L493.828,1055.483L502.207,1055.483L502.207,1063.862L493.828,1063.862ZM544.103,1063.862L544.103,1055.483L552.483,1055.483L552.483,1063.862L544.103,1063.862ZM552.483,1072.241L552.483,1080.621L544.103,1080.621L544.103,1072.241L552.483,1072.241ZM410.034,1080.621L410.034,1089L418.414,1089L418.414,1080.621L410.034,1080.621Z"/>
        </g>
    </g>
</svg>
