<?xml version="1.0" encoding="UTF-8" standalone="no"?>
<!DOCTYPE svg PUBLIC "-//W3C//DTD SVG 1.1//EN" "http://www.w3.org/Graphics/SVG/1.1/DTD/svg11.dtd">
<svg width="100%" height="100%" viewBox="0 0 237 237" version="1.1" xmlns="http://www.w3.org/2000/svg" xmlns:xlink="http://www.w3.org/1999/xlink" xml:space="preserve" xmlns:serif="http://www.serif.com/" style="fill-rule:evenodd;clip-rule:evenodd;stroke-linejoin:round;stroke-miterlimit:2;">
    <g transform="matrix(1,0,0,1,-549.402375,-774)">
        <g transform="matrix(0.972101,0,0,0.972101,215.971831,-48.3972)">
            <path d="M343,846L343,914.04L411.04,914.04L411.04,846L343,846ZM420.76,846L420.76,855.72L449.92,855.72L449.92,875.16L440.2,875.16L440.2,865.44L430.48,865.44L430.48,875.16L440.2,875.16L440.2,894.6L449.92,894.6L449.92,904.32L459.64,904.32L459.64,914.04L449.92,914.04L449.92,904.32L440.2,904.32L440.2,894.6L430.48,894.6L430.48,904.32L440.2,904.32L440.2,914.04L449.92,914.04L449.92,923.76L479.08,923.76L479.08,914.04L469.36,914.04L469.36,904.32L459.64,904.32L459.64,894.6L479.08,894.6L479.08,914.04L488.8,914.04L488.8,923.76L498.52,923.76L498.52,933.48L469.36,933.48L469.36,952.92L479.08,952.92L479.08,962.64L488.8,962.64L488.8,972.36L479.08,972.36L479.08,962.64L469.36,962.64L469.36,991.8L479.08,991.8L479.08,1001.52L488.8,1001.52L488.8,1011.24L498.52,1011.24L498.52,1030.68L488.8,1030.68L488.8,1040.4L479.08,1040.4L479.08,1030.68L459.64,1030.68L459.64,1020.96L449.92,1020.96L449.92,1011.24L430.48,1011.24L430.48,991.8L411.04,991.8L411.04,982.08L401.32,982.08L401.32,991.8L411.04,991.8L411.04,1001.52L401.32,1001.52L401.32,991.8L391.6,991.8L391.6,972.36L381.88,972.36L381.88,962.64L372.16,962.64L372.16,943.2L362.44,943.2L362.44,952.92L352.72,952.92L352.72,943.2L343,943.2L343,952.92L352.72,952.92L352.72,962.64L372.16,962.64L372.16,982.08L381.88,982.08L381.88,991.8L372.16,991.8L372.16,1001.52L362.44,1001.52L362.44,1011.24L381.88,1011.24L381.88,1001.52L401.32,1001.52L401.32,1011.24L420.76,1011.24L420.76,1020.96L430.48,1020.96L430.48,1030.68L440.2,1030.68L440.2,1040.4L420.76,1040.4L420.76,1059.84L430.48,1059.84L430.48,1050.12L440.2,1050.12L440.2,1069.56L449.92,1069.56L449.92,1079.28L440.2,1079.28L440.2,1069.56L420.76,1069.56L420.76,1089L430.48,1089L430.48,1079.28L440.2,1079.28L440.2,1089L459.64,1089L459.64,1079.28L469.36,1079.28L469.36,1059.84L459.64,1059.84L459.64,1050.12L469.36,1050.12L469.36,1040.4L479.08,1040.4L479.08,1059.84L527.68,1059.84L527.68,1050.12L547.12,1050.12L547.12,1001.52L537.4,1001.52L537.4,991.8L527.68,991.8L527.68,982.08L517.96,982.08L517.96,972.36L508.24,972.36L508.24,962.64L488.8,962.64L488.8,952.92L479.08,952.92L479.08,943.2L488.8,943.2L488.8,952.92L508.24,952.92L508.24,855.72L498.52,855.72L498.52,914.04L488.8,914.04L488.8,884.88L479.08,884.88L479.08,875.16L488.8,875.16L488.8,865.44L469.36,865.44L469.36,855.72L459.64,855.72L459.64,846L420.76,846ZM479.08,846L479.08,855.72L488.8,855.72L488.8,846L479.08,846ZM517.96,846L517.96,914.04L586,914.04L586,846L517.96,846ZM401.32,855.72L401.32,904.32L352.72,904.32L352.72,855.72L401.32,855.72ZM576.28,855.72L576.28,904.32L527.68,904.32L527.68,855.72L576.28,855.72ZM362.44,865.44L362.44,894.6L391.6,894.6L391.6,865.44L362.44,865.44ZM537.4,865.44L537.4,894.6L566.56,894.6L566.56,865.44L537.4,865.44ZM459.64,875.16L459.64,865.44L469.36,865.44L469.36,875.16L459.64,875.16ZM420.76,904.32L420.76,923.76L430.48,923.76L430.48,933.48L440.2,933.48L440.2,943.2L449.92,943.2L449.92,962.64L420.76,962.64L420.76,952.92L440.2,952.92L440.2,943.2L420.76,943.2L420.76,933.48L411.04,933.48L411.04,923.76L401.32,923.76L401.32,933.48L411.04,933.48L411.04,943.2L401.32,943.2L401.32,933.48L391.6,933.48L391.6,923.76L372.16,923.76L372.16,933.48L381.88,933.48L381.88,943.2L391.6,943.2L391.6,952.92L411.04,952.92L411.04,962.64L420.76,962.64L420.76,972.36L411.04,972.36L411.04,962.64L401.32,962.64L401.32,972.36L411.04,972.36L411.04,982.08L430.48,982.08L430.48,991.8L440.2,991.8L440.2,982.08L459.64,982.08L459.64,933.48L440.2,933.48L440.2,914.04L430.48,914.04L430.48,904.32L420.76,904.32ZM343,923.76L343,933.48L362.44,933.48L362.44,923.76L343,923.76ZM517.96,923.76L517.96,933.48L527.68,933.48L527.68,952.92L537.4,952.92L537.4,962.64L576.28,962.64L576.28,972.36L586,972.36L586,943.2L576.28,943.2L576.28,933.48L527.68,933.48L527.68,923.76L517.96,923.76ZM576.28,923.76L576.28,933.48L586,933.48L586,923.76L576.28,923.76ZM381.88,952.92L381.88,962.64L391.6,962.64L391.6,952.92L381.88,952.92ZM556.84,952.92L556.84,943.2L576.28,943.2L576.28,952.92L556.84,952.92ZM343,962.64L343,1011.24L352.72,1011.24L352.72,991.8L362.44,991.8L362.44,972.36L352.72,972.36L352.72,962.64L343,962.64ZM517.96,962.64L517.96,972.36L527.68,972.36L527.68,962.64L517.96,962.64ZM537.4,972.36L537.4,991.8L547.12,991.8L547.12,1001.52L556.84,1001.52L556.84,1020.96L576.28,1020.96L576.28,1040.4L586,1040.4L586,1020.96L576.28,1020.96L576.28,1001.52L566.56,1001.52L566.56,991.8L576.28,991.8L576.28,1001.52L586,1001.52L586,982.08L576.28,982.08L576.28,972.36L566.56,972.36L566.56,982.08L547.12,982.08L547.12,972.36L537.4,972.36ZM488.8,982.08L488.8,991.8L479.08,991.8L479.08,982.08L488.8,982.08ZM449.92,991.8L449.92,1011.24L469.36,1011.24L469.36,1020.96L479.08,1020.96L479.08,1011.24L469.36,1011.24L469.36,991.8L449.92,991.8ZM537.4,1011.24L537.4,1040.4L508.24,1040.4L508.24,1011.24L537.4,1011.24ZM343,1020.96L343,1089L411.04,1089L411.04,1020.96L343,1020.96ZM517.96,1020.96L517.96,1030.68L527.68,1030.68L527.68,1020.96L517.96,1020.96ZM401.32,1030.68L401.32,1079.28L352.72,1079.28L352.72,1030.68L401.32,1030.68ZM362.44,1040.4L362.44,1069.56L391.6,1069.56L391.6,1040.4L362.44,1040.4ZM449.92,1040.4L449.92,1030.68L440.2,1030.68L440.2,1020.96L449.92,1020.96L449.92,1030.68L459.64,1030.68L459.64,1040.4L449.92,1040.4ZM566.56,1040.4L566.56,1059.84L537.4,1059.84L537.4,1069.56L517.96,1069.56L517.96,1079.28L498.52,1079.28L498.52,1069.56L479.08,1069.56L479.08,1079.28L498.52,1079.28L498.52,1089L527.68,1089L527.68,1079.28L547.12,1079.28L547.12,1089L556.84,1089L556.84,1079.28L547.12,1079.28L547.12,1069.56L556.84,1069.56L556.84,1079.28L576.28,1079.28L576.28,1089L586,1089L586,1050.12L576.28,1050.12L576.28,1040.4L566.56,1040.4Z"/>
        </g>
    </g>
</svg>
